# xmcd
#
# Track frame offsets: 
#        150
#        17271
#        32957
#        47643
#        72263
#        80241
#
# Disc length: 1518 seconds
#
# Revision: 0
# Processed by: cddbd v1.5.2PL0 Copyright (c) Steve Scherf et al.
# Submitted via: ExactAudioCopy v0.99pb4
#
DISCID=4705ec06
DTITLE=When Saints Go Machine - Fail Forever (Single)
DYEAR=2010
DGENRE=Electronic
TTITLE0=Fail Forever
TTITLE1=Pick Up Your Tears And Run
TTITLE2=Pinned
TTITLE3=You Or The Gang
TTITLE4=Greys And Blues
TTITLE5=Fail Forever (dOP Remix)
EXTD=
EXTT0=
EXTT1=
EXTT2=
EXTT3=
EXTT4=
EXTT5=
PLAYORDER=
